<svg width="395" height="395" viewBox="0 0 395 395" fill="none" xmlns="http://www.w3.org/2000/svg">
<rect width="395" height="395" fill="#FF4F00"/>
<path d="M93.696 264.84H40.704V141H93.696V157.992H60.864V247.848H93.696V264.84ZM153.544 250.728C146.248 250.728 139.864 249.096 134.392 245.832C128.92 242.472 124.648 237.768 121.576 231.72C118.504 225.672 116.968 218.568 116.968 210.408C116.968 202.152 118.504 195.048 121.576 189.096C124.648 183.048 128.92 178.392 134.392 175.128C139.864 171.768 146.248 170.088 153.544 170.088C160.84 170.088 167.224 171.768 172.696 175.128C178.168 178.392 182.44 183.048 185.512 189.096C188.584 195.048 190.12 202.152 190.12 210.408C190.12 218.568 188.584 225.672 185.512 231.72C182.44 237.768 178.168 242.472 172.696 245.832C167.224 249.096 160.84 250.728 153.544 250.728ZM153.544 233.448C158.728 233.448 162.712 231.48 165.496 227.544C168.376 223.512 169.816 217.8 169.816 210.408C169.816 202.92 168.376 197.208 165.496 193.272C162.712 189.336 158.728 187.368 153.544 187.368C148.36 187.368 144.328 189.336 141.448 193.272C138.664 197.208 137.272 202.92 137.272 210.408C137.272 217.8 138.664 223.512 141.448 227.544C144.328 231.48 148.36 233.448 153.544 233.448ZM239.888 251.304C231.632 251.304 224.624 249.24 218.864 245.112C213.2 240.984 208.832 234.984 205.76 227.112C202.784 219.144 201.296 209.448 201.296 198.024C201.296 186.6 202.784 176.904 205.76 168.936C208.832 160.968 213.2 154.92 218.864 150.792C224.624 146.568 231.632 144.456 239.888 144.456C248.144 144.456 255.152 146.568 260.912 150.792C266.672 154.92 271.04 160.968 274.016 168.936C276.992 176.904 278.48 186.6 278.48 198.024C278.48 209.448 276.992 219.144 274.016 227.112C271.04 234.984 266.672 240.984 260.912 245.112C255.152 249.24 248.144 251.304 239.888 251.304ZM239.888 233.16C243.728 233.16 246.944 231.96 249.536 229.56C252.128 227.064 254.096 223.224 255.44 218.04C256.784 212.856 257.456 206.184 257.456 198.024C257.456 189.864 256.784 183.192 255.44 178.008C254.096 172.728 252.128 168.84 249.536 166.344C246.944 163.848 243.728 162.6 239.888 162.6C236.144 162.6 232.928 163.848 230.24 166.344C227.648 168.84 225.68 172.728 224.336 178.008C222.992 183.192 222.32 189.864 222.32 198.024C222.32 206.184 222.992 212.856 224.336 218.04C225.68 223.224 227.648 227.064 230.24 229.56C232.928 231.96 236.144 233.16 239.888 233.16ZM299.735 264.84V247.848H332.567V157.992H299.735V141H352.727V264.84H299.735Z" fill="white"/>
</svg>
